<svg class="brand-image" width="100%" height="100%" viewBox="0 0 40 40" version="1.1" xmlns="http://www.w3.org/2000/svg"
     xmlns:xlink="http://www.w3.org/1999/xlink" xml:space="preserve" xmlns:serif="http://www.serif.com/"
     style="fill-rule:evenodd;clip-rule:evenodd;stroke-linejoin:round;stroke-miterlimit:2;">
  <g id="Logo" fill="currentColor">
    <path id="Shape" d="M22.2,22.655c-1.924,2.236 -4.397,3.582 -7.155,4.456c-2.181,0.693 -4.401,1.258 -6.604,1.877c-0.019,0.006 -0.039,0.01 -0.059,0.012c-0.226,-0.611 -0.428,-1.241 -0.606,-1.891c1.158,-0.299 2.298,-0.583 3.435,-0.896c2.037,-0.563 4.074,-1.146 5.949,-2.132c2.568,-1.35 4.533,-3.264 5.373,-6.105c0.481,-1.504 0.467,-3.12 -0.038,-4.616c-0.522,-1.497 -1.544,-2.076 -3.126,-1.797c-0.893,0.152 -1.601,0.855 -1.819,1.835c-0.155,0.717 -0.246,1.449 -0.428,2.158c-0.689,2.717 -2.346,4.55 -5.119,5.343c-1.657,0.463 -3.38,0.652 -5.1,0.557c-0.02,-0.4 -0.028,-0.799 -0.028,-1.198c0,-0.238 0,-0.473 0.01,-0.709c1.01,-0.074 1.984,-0.124 2.95,-0.23c0.547,-0.071 1.088,-0.184 1.617,-0.339c2.326,-0.641 3.449,-2.304 3.865,-4.548c0.069,-0.377 0.132,-0.755 0.202,-1.132c0.463,-2.685 2.686,-4.192 5.41,-3.711c2.208,0.399 3.271,1.9 3.691,3.885c0.726,3.43 -0.105,6.49 -2.42,9.181Z" style="fill-rule:nonzero;"/>
    <path
            id="Shape1" serif:id="Shape"
            d="M33.125,23.237c-0.052,0.461 -0.117,0.914 -0.202,1.363c-0.034,0.201 -0.072,0.415 -0.113,0.62c-1.645,0.182 -4.162,-0.419 -5.338,-2.794c-0.712,-1.439 -0.934,-2.98 -1.083,-4.55c-0.179,-1.862 -0.266,-3.744 -0.605,-5.575c-0.401,-2.163 -1.644,-3.724 -3.906,-4.305c-3.397,-0.868 -6.551,0.471 -7.932,3.429c-0.289,0.617 -0.39,1.317 -0.621,1.964c-0.281,0.848 -0.609,1.681 -0.983,2.493c-0.459,0.944 -1.304,1.425 -2.335,1.603c-1.04,0.162 -2.101,0.139 -3.132,-0.07c0.067,-0.656 0.157,-1.3 0.268,-1.934c0.444,0.034 0.88,0.076 1.315,0.09c0.353,0.013 0.707,0.003 1.059,-0.03c0.551,-0.054 0.996,-0.3 1.192,-0.841c0.308,-0.856 0.645,-1.708 0.867,-2.588c0.961,-3.983 4.704,-6.673 8.811,-6.333c1.848,0.13 3.562,0.569 4.982,1.816c1.538,1.351 2.295,3.126 2.569,5.086c0.248,1.774 0.298,3.574 0.51,5.352c0.111,0.999 0.314,1.987 0.605,2.95c0.472,1.507 1.614,2.204 3.177,2.278c0.171,0.004 0.669,-0.022 0.895,-0.024Z"
            style="fill-rule:nonzero;"/>
    <path id="Shape2" serif:id="Shape"
          d="M33.125,20.061l0,0.574c0,0.291 -0.016,0.578 -0.032,0.865c-0.89,-0.175 -1.683,-0.677 -2.225,-1.409c-0.656,-0.951 -0.854,-2.055 -0.899,-3.175c-0.099,-2.089 -0.252,-4.164 -0.855,-6.179c-1.062,-3.543 -4.39,-6.459 -7.954,-6.674c-3.837,-0.235 -6.95,1.223 -9.071,4.564c-0.787,1.26 -1.417,2.613 -1.875,4.028l-1.306,0.779l-0.533,-1.497c0.216,-0.598 0.432,-1.196 0.679,-1.778c0.861,-2.024 1.962,-3.918 3.669,-5.337c4.471,-3.713 12.112,-4.516 16.785,2.266c1.314,1.91 1.896,4.044 2.156,6.296c0.168,1.453 0.233,2.92 0.396,4.373c0.085,0.726 0.33,1.395 1.051,1.702c0.012,0.199 0.014,0.401 0.014,0.602Z"
          style="fill-rule:nonzero;"/>
    <path id="Shape3"
          serif:id="Shape"
          d="M30.875,31.151c-0.128,0.273 -0.261,0.54 -0.399,0.81c-0.142,0.27 -0.289,0.533 -0.439,0.789c-0.702,-0.49 -1.566,-1.103 -2.259,-1.55c-1.204,-0.795 -2.535,-1.37 -3.935,-1.699c-1.48,-0.333 -2.929,-0.078 -4.344,0.328c-3.171,0.913 -6.323,1.881 -9.484,2.834l-0.028,-0c-0.309,-0.53 -0.599,-1.087 -0.862,-1.664c0.896,-0.295 1.77,-0.607 2.662,-0.866c2.772,-0.793 5.545,-1.585 8.331,-2.332c2.195,-0.589 4.332,-0.281 6.395,0.634c1.571,0.696 3.039,1.61 4.362,2.716Z"
          style="fill-rule:nonzero;"/>
    <path
            id="Shape4" serif:id="Shape"
            d="M21.787,14.652c-0.271,-0.825 -1.039,-1.387 -1.913,-1.402c-0.873,0.003 -1.643,0.568 -1.903,1.396c-0.272,0.864 0.016,1.578 0.662,2.219l-0.926,1.475c-0.924,1.522 -2.365,2.667 -4.062,3.228c-1.381,0.462 -2.785,0.858 -4.186,1.249c-0.856,0.234 -1.721,0.426 -2.584,0.633c0.071,0.606 0.167,1.211 0.28,1.8c0.078,-0.002 0.154,-0.011 0.23,-0.028c1.757,-0.448 3.524,-0.864 5.269,-1.362c1.783,-0.51 3.499,-1.184 4.903,-2.461c1.19,-1.086 1.998,-2.444 2.807,-3.807c0.162,-0.267 0.378,-0.499 0.633,-0.68c0.728,-0.505 1.047,-1.416 0.79,-2.26Zm-1.858,1.279c-0.395,0 -0.716,-0.317 -0.717,-0.71c-0.001,-0.392 0.318,-0.712 0.713,-0.714c0.395,-0.002 0.718,0.313 0.721,0.706c0.002,0.19 -0.073,0.373 -0.208,0.508c-0.135,0.134 -0.318,0.21 -0.509,0.21Z"
            style="fill-rule:nonzero;"/>
    <path id="Shape5" serif:id="Shape"
          d="M29.375,34.023c-0.186,0.273 -0.378,0.54 -0.578,0.801c-0.053,0.052 -0.098,0.11 -0.137,0.174c-0.134,0.171 -0.27,0.337 -0.41,0.499c-1.58,-1.306 -3.538,-2.066 -5.49,-2.337c-1.447,-0.206 -2.877,0.066 -4.249,0.491c-1.974,0.616 -3.912,1.351 -5.865,2.039c-0.049,0.019 -0.098,0.037 -0.148,0.06c-0.329,-0.367 -0.645,-0.756 -0.949,-1.167c-0.056,-0.131 -0.115,-0.265 -0.174,-0.411c1.109,-0.439 2.172,-0.887 3.251,-1.283c2.144,-0.789 4.32,-1.49 6.604,-1.619c2.961,-0.17 5.622,0.752 7.981,2.621c0.051,0.053 0.107,0.09 0.164,0.132Z"
          style="fill-rule:nonzero;"/>
    <path id="Shape6"
          serif:id="Shape"
          d="M26.375,36.719c-0.237,0.193 -0.479,0.374 -0.724,0.544c-0.343,0.241 -0.7,0.46 -1.07,0.657c-0.475,-0.194 -0.937,-0.389 -1.401,-0.583c-2.027,-0.813 -4.026,-0.453 -6.014,0.159c-0.518,0.16 -1.033,0.329 -1.565,0.504c-0.702,-0.369 -1.365,-0.808 -1.976,-1.312c1.148,-0.379 2.258,-0.778 3.394,-1.093c0.872,-0.245 1.761,-0.424 2.659,-0.536c2.293,-0.284 4.656,0.493 6.697,1.66Z"
          style="fill-rule:nonzero;"/>
    <path
            id="Shape7" serif:id="Shape"
            d="M32.375,27.863c-0.085,0.296 -0.172,0.587 -0.265,0.874c-0.034,0.078 -0.061,0.159 -0.078,0.242l-0.273,0.771c-2.929,-0.874 -5.64,-1.987 -7.491,-4.474l-0.143,-1.526l1.601,0.166c1.603,2.195 4.149,3.167 6.649,3.947Z"
            style="fill-rule:nonzero;"/>
  </g>
</svg>
